<svg width="19" height="18" viewBox="0 0 19 18" fill="none" xmlns="http://www.w3.org/2000/svg">
<path d="M15.3962 4.75L15.7075 2.72674C15.8825 1.5895 16.861 0.75 18.0116 0.75M15.3962 4.75L14.403 11.2062C14.1778 12.6697 12.9186 13.75 11.4379 13.75H4.41813C3.01203 13.75 1.79459 12.7734 1.48957 11.4008L0.822901 8.40079C0.406558 6.52725 1.83222 4.75 3.75146 4.75H15.3962ZM12.5116 16.5C12.5116 16.9142 12.1758 17.25 11.7616 17.25C11.3474 17.25 11.0116 16.9142 11.0116 16.5C11.0116 16.0858 11.3474 15.75 11.7616 15.75C12.1758 15.75 12.5116 16.0858 12.5116 16.5ZM4.51161 16.5C4.51161 16.9142 4.17583 17.25 3.76161 17.25C3.3474 17.25 3.01161 16.9142 3.01161 16.5C3.01161 16.0858 3.3474 15.75 3.76161 15.75C4.17583 15.75 4.51161 16.0858 4.51161 16.5Z" stroke="black" stroke-width="1.5" stroke-linecap="round" stroke-linejoin="round"/>
</svg>
