<svg width="17" height="18" viewBox="0 0 17 18" fill="none" xmlns="http://www.w3.org/2000/svg">
    <path d="M4.27897 12.728C7.37236 15.8214 11.4916 16.9611 14.5263 15.8456C15.8756 15.3496 15.9475 13.6503 15.0262 12.5468L14.2563 11.6246C13.6236 10.8668 12.4771 10.8153 11.7791 11.5133C11.2846 12.0078 10.535 12.1452 9.91779 11.8164C9.05488 11.3567 7.85234 10.6446 7.1074 9.89961C6.36246 9.15466 5.6503 7.95213 5.19063 7.08922C4.86183 6.47201 4.99919 5.72242 5.49369 5.22793C6.19169 4.52992 6.1402 3.38338 5.38244 2.75075L4.46026 1.98086C3.35667 1.05951 1.65745 1.1314 1.16144 2.48076C0.0459168 5.51543 1.18559 9.63465 4.27897 12.728Z" stroke="black" stroke-width="1.5"/>
    </svg>
    