<svg width="24" height="24" viewBox="0 0 24 24" fill="none" xmlns="http://www.w3.org/2000/svg">
    <path d="M8.27894 15.728C11.3723 18.8214 15.4915 19.9611 18.5262 18.8456C19.8756 18.3496 19.9475 16.6503 19.0261 15.5468L18.2562 14.6246C17.6236 13.8668 16.4771 13.8153 15.7791 14.5133C15.2846 15.0078 14.535 15.1452 13.9178 14.8164C13.0549 14.3567 11.8523 13.6446 11.1074 12.8996C10.3624 12.1547 9.65027 10.9521 9.1906 10.0892C8.8618 9.47201 8.99916 8.72242 9.49366 8.22793C10.1917 7.52992 10.1402 6.38338 9.38241 5.75075L8.46023 4.98086C7.35664 4.05951 5.65742 4.1314 5.16141 5.48076C4.04589 8.51543 5.18556 12.6347 8.27894 15.728Z" stroke="black" stroke-width="1.5"/>
    </svg>
    