<svg width="32" height="32" viewBox="0 0 32 32" fill="none" xmlns="http://www.w3.org/2000/svg">
    <path d="M23.3857 8.78096C23.3857 4.74763 20.1143 1.4762 16.0809 1.4762C12.0476 1.4762 8.77618 4.74763 8.77618 8.78096C8.77618 12.8143 12.0476 16.0857 16.0809 16.0857" fill="#FFF6BD"/>
    <path d="M16.0809 16.081C20.1143 16.081 23.3857 19.3524 23.3857 23.3858C23.3857 27.4191 20.1143 30.6905 16.0809 30.6905C12.0476 30.6905 8.77618 27.4191 8.77618 23.3858" fill="#FFF6BD"/>
    <path d="M23.3857 23.3857C27.4191 23.3857 30.6905 20.1143 30.6905 16.0809C30.6905 12.0476 27.4191 8.77618 23.3857 8.77618C19.3524 8.77618 16.081 12.0476 16.081 16.0809" fill="#FFF6BD"/>
    <path d="M16.0857 16.0809C16.0857 20.1143 12.8143 23.3857 8.78096 23.3857C4.74763 23.3857 1.4762 20.1143 1.4762 16.0809C1.4762 12.0476 4.74763 8.77618 8.78096 8.77618" fill="#FFF6BD"/>
    <path d="M23.3857 8.78096C23.3857 4.74763 20.1143 1.4762 16.0809 1.4762C12.0476 1.4762 8.77618 4.74763 8.77618 8.78096C8.77618 12.8143 12.0476 16.0857 16.0809 16.0857" stroke="#F7B463" stroke-miterlimit="10"/>
    <path d="M16.0809 16.081C20.1143 16.081 23.3857 19.3524 23.3857 23.3858C23.3857 27.4191 20.1143 30.6905 16.0809 30.6905C12.0476 30.6905 8.77618 27.4191 8.77618 23.3858" stroke="#F7B463" stroke-miterlimit="10"/>
    <path d="M23.3857 23.3857C27.4191 23.3857 30.6905 20.1143 30.6905 16.0809C30.6905 12.0476 27.4191 8.77618 23.3857 8.77618C19.3524 8.77618 16.081 12.0476 16.081 16.0809" stroke="#F7B463" stroke-miterlimit="10"/>
    <path d="M16.081 16.0809C16.081 20.1143 12.8095 23.3857 8.7762 23.3857C4.74286 23.3857 1.4762 20.1143 1.4762 16.0809C1.4762 12.0476 4.74762 8.77618 8.78096 8.77618" stroke="#F7B463" stroke-miterlimit="10"/>
    <path d="M16.0857 16.0809C16.0857 20.1143 12.8143 23.3857 8.78096 23.3857C4.74763 23.3857 1.4762 20.1143 1.4762 16.0809C1.4762 12.0476 4.74763 8.77618 8.78096 8.77618" stroke="#F7B463" stroke-miterlimit="10"/>
    </svg>
    