<svg width="16" height="20" viewBox="0 0 16 20" fill="none" xmlns="http://www.w3.org/2000/svg">
    <path d="M11 8C11 9.65685 9.65685 11 8 11C6.34315 11 5 9.65685 5 8C5 6.34315 6.34315 5 8 5C9.65685 5 11 6.34315 11 8Z" stroke="black" stroke-width="1.5" stroke-linecap="round" stroke-linejoin="round"/>
    <path d="M8 1C4.13401 1 1 4.13401 1 8C1 9.71352 1.61568 11.2832 2.63789 12.5L6.37304 17.7244C7.17074 18.8401 8.82926 18.8401 9.62696 17.7244L13.3621 12.5C14.3843 11.2832 15 9.71352 15 8C15 4.13401 11.866 1 8 1Z" stroke="black" stroke-width="1.5" stroke-linecap="round" stroke-linejoin="round"/>
    </svg>
    